<svg fill="none" xmlns="http://www.w3.org/2000/svg" viewBox="0 0 400 300"><path d="M322.869 65.213c0-13.843-11.222-25.065-25.065-25.065-13.844 0-25.066 11.222-25.066 25.065v133.683c0 13.843 11.222 25.065 25.066 25.065 13.843 0 25.065-11.222 25.065-25.065V65.213ZM218.012 65.213c0-13.843-11.222-25.065-25.066-25.065-13.843 0-25.065 11.222-25.065 25.065v133.683c0 13.843 11.222 25.065 25.065 25.065 13.844 0 25.066-11.222 25.066-25.065V65.213Z" stroke="#4F46E5" stroke-width="5" stroke-miterlimit="10"/><path d="M317.555 80.632c8.53-10.903 6.607-26.656-4.296-35.186-10.903-8.53-26.656-6.608-35.187 4.295L173.403 183.519c-8.531 10.903-6.607 26.657 4.295 35.187 10.903 8.53 26.657 6.607 35.187-4.295l104.67-133.779ZM212.597 80.636c8.53-10.902 6.607-26.656-4.295-35.186-10.903-8.53-26.657-6.608-35.187 4.295L68.445 183.523c-8.53 10.903-6.607 26.657 4.296 35.187 10.902 8.53 26.656 6.607 35.186-4.295l104.67-133.779Z" stroke="#4F46E5" stroke-width="5" stroke-miterlimit="10"/><rect x="245" y="234" width="80" height="36" rx="18" fill="#4F46E5"/><path d="M283.127 250h-1.585a3.306 3.306 0 0 0-1.336-2.071 3.57 3.57 0 0 0-1.093-.537 4.378 4.378 0 0 0-1.253-.179c-.793 0-1.511.2-2.154.601-.639.4-1.148.991-1.528 1.771-.375.779-.562 1.736-.562 2.87 0 1.133.187 2.09.562 2.87.38.779.889 1.37 1.528 1.77a3.987 3.987 0 0 0 2.154.601c.435 0 .852-.06 1.253-.179.4-.119.765-.296 1.093-.53.332-.239.614-.531.844-.876.234-.35.398-.75.492-1.202h1.585a5.278 5.278 0 0 1-.652 1.796 4.896 4.896 0 0 1-1.176 1.349 5.145 5.145 0 0 1-1.579.837 5.873 5.873 0 0 1-1.86.288c-1.116 0-2.109-.273-2.979-.818-.869-.546-1.553-1.321-2.051-2.327-.499-1.006-.748-2.199-.748-3.579 0-1.381.249-2.574.748-3.58.498-1.006 1.182-1.781 2.051-2.327.87-.545 1.863-.818 2.979-.818.661 0 1.281.096 1.86.288.584.192 1.11.473 1.579.844.469.366.861.813 1.176 1.342.315.524.533 1.123.652 1.796Zm2.562 9v-13.091h1.585v11.685h6.085V259h-7.67Zm11.71-13.091V259h-1.585v-13.091h1.585Z" fill="#fff"/></svg>
